# xmcd
#
# Track frame offsets:
#	150
#	16475
#	32712
#	55965
#
# Disc length: 1061 seconds
#
# Revision: 1
# Processed by: cddbd v1.5.2PL0 Copyright (c) Steve Scherf et al.
# Submitted via: audiograbber 1.83.01
#
DISCID=2c042304
DTITLE=Circus - Nirvanaan [CDM)
DYEAR=1999
DGENRE=Dance
TTITLE0=Nirvanaan (Radio Edit)
TTITLE1=Nirvanaan (8 A.M. Radio Edit)
TTITLE2=Nirvanaan (Elo Club Mix)
TTITLE3=Nirvanaan (Extended)
EXTD=TR.
EXTT0=
EXTT1=
EXTT2=
EXTT3=
PLAYORDER=
